<svg xmlns="http://www.w3.org/2000/svg" version="1.1" viewBox="-5.0 -10.0 110.0 135.0">
 <path d="m8.9297 7.2188c-4.8906 0-8.9297 4.0391-8.9297 8.9297v13.289c0 3.5234 2.0938 6.6055 5.0977 8.0508v45.008c0 5.6562 4.6602 10.285 10.316 10.285h69.184c5.6562 0 10.309-4.6289 10.309-10.285v-45.008c3.0039-1.4453 5.0977-4.5273 5.0977-8.0508v-13.289c0-4.8906-4.0312-8.9297-8.9219-8.9297zm0 6.25h82.148c1.5352 0 2.6719 1.1445 2.6719 2.6797v13.289c0 1.5352-1.1367 2.6719-2.6719 2.6719h-82.148c-1.5352 0-2.6797-1.1367-2.6797-2.6719v-13.289c0-1.5352 1.1445-2.6797 2.6797-2.6797zm2.4219 24.891h77.301v44.133c0 2.2773-1.7812 4.0352-4.0586 4.0352h-69.184c-2.2773 0-4.0586-1.7578-4.0586-4.0352zm25.812 10.148v0.003907c-0.83203-0.003907-1.6328 0.32422-2.2227 0.91406-0.58984 0.58984-0.91797 1.3906-0.91406 2.2227 0 0.82812 0.33203 1.625 0.92188 2.2109 0.58984 0.58203 1.3867 0.91016 2.2148 0.90625h25.68c0.82812 0.003906 1.625-0.32422 2.2148-0.90625 0.58594-0.58594 0.91797-1.3828 0.92188-2.2109 0-0.83203-0.32812-1.6328-0.91797-2.2227-0.58594-0.58984-1.3867-0.91797-2.2188-0.91406z"/>
<text x="0.0" y="117.5" font-size="5.0" font-weight="bold" font-family="Arbeit Regular, Helvetica, Arial-Unicode, Arial, Sans-serif" fill="#000000">Created by Alzam</text><text x="0.0" y="122.5" font-size="5.0" font-weight="bold" font-family="Arbeit Regular, Helvetica, Arial-Unicode, Arial, Sans-serif" fill="#000000">from Noun Project</text></svg>